<svg height="464pt" viewBox="0 -4 464.28236 464" width="464pt" xmlns="http://www.w3.org/2000/svg"><path d="m376.179688 215.285156-8.957032 72h-119.519531c-4.257813-85.042968-74.375-151.851562-159.523437-152h-48l25.761718 167.277344c3.59375 23.425781 23.742188 40.71875 47.441406 40.722656h268.398438c24.359375.183594 44.996094-17.90625 48-42.082031l10.398438-85.917969zm0 0" fill="#ff3314"/><path d="m405.78125 319.285156h-213.519531c-55.203125-.015625-102.164063-40.253906-110.640625-94.800781l-13.761719-89.199219h-27.679687l25.761718 167.277344c3.59375 23.425781 23.742188 40.71875 47.441406 40.722656h268.398438c18.878906-.054687 35.972656-11.167968 43.679688-28.402344-6.175782 2.84375-12.882813 4.34375-19.679688 4.402344zm0 0" fill="#b21800"/><path d="m447.703125 183.285156h-85.601563c-8.113281-.066406-14.988281 5.949219-16 14l-7.121093 58h-63.121094c-18.871094-88.597656-97.09375-151.949218-187.679687-152h-72c-4.691407-.054687-9.171876 1.957032-12.253907 5.5-3.078125 3.542969-4.449219 8.257813-3.746093 12.898438 1.199218 7.890625 8.023437 13.691406 16 13.601562h72c85.148437.148438 155.265624 66.957032 159.523437 152h118.398437l9.039063-72h72.960937c4.695313.050782 9.175782-1.960937 12.253907-5.5 3.082031-3.542968 4.449219-8.261718 3.746093-12.902344-1.214843-8.042968-8.269531-13.894531-16.398437-13.597656zm0 0" fill="#f7f9f2"/><path d="m432.179688 375.285156c0 26.507813-21.488282 48-48 48h-336c-8.835938 0-16 7.160156-16 16 0 8.835938 7.164062 16 16 16h336c44.183593 0 80-35.820312 80-80 0-8.839844-7.160157-16-16-16-8.835938 0-16 7.160156-16 16zm0 0" fill="#d5ad56"/><path d="m40.179688 431.285156h336c14.703124-.015625 28.589843-6.765625 37.679687-18.320312-8.453125 6.671875-18.90625 10.304687-29.679687 10.320312h-336c-6.324219.039063-12.027344 3.800782-14.558594 9.597656 2.046875-.992187 4.285156-1.539062 6.558594-1.597656zm0 0" fill="#f8e19f"/><path d="m448.179688 359.285156c-6.285157.011719-11.980469 3.703125-14.558594 9.4375 2.058594-.9375 4.296875-1.429687 6.558594-1.4375 8.839843 0 16 7.160156 16 16-.011719 19.253906-6.972657 37.859375-19.597657 52.398438 17.515625-15.183594 27.585938-37.21875 27.597657-60.398438 0-8.839844-7.160157-16-16-16zm0 0" fill="#f8e19f"/><path d="m144.179688 343.445312h32v80h-32zm0 0" fill="#d5ad56"/><path d="m304.179688 343.445312h32v80h-32zm0 0" fill="#d5ad56"/><path d="m155.382812 243.445312 24-17.601562-3.203124 29.601562 27.203124 12-27.203124 12 3.203124 29.597657-24-17.597657-24 17.597657 3.199219-29.597657-27.199219-12 27.199219-12-3.199219-29.601562zm0 0" fill="#f8e19f"/><path d="m132.179688 301.84375-.796876 7.121094 5.757813-4.160156c-1.4375-.960938-3.359375-1.519532-4.960937-2.960938zm0 0" fill="#d5ad56"/><path d="m144.179688 343.445312h32v24h-32zm0 0" fill="#95793c"/><path d="m304.179688 343.445312h32v24h-32zm0 0" fill="#95793c"/><path d="m247.703125 287.285156c-4.257813-85.042968-74.375-151.851562-159.523437-152h-48l2.480468 16h37.519532c85.148437.148438 155.265624 66.957032 159.523437 152h118.398437l10-16zm0 0" fill="#b21800"/><path d="m440.179688 215.445312h-64l-2 16h64zm0 0" fill="#b21800"/><path d="m112.179688 175.285156h-8v-8c0-4.417968-3.582032-8-8-8-4.417969 0-8 3.582032-8 8v8h-8c-4.417969 0-8 3.582032-8 8 0 4.417969 3.582031 8 8 8h8v8c0 4.417969 3.582031 8 8 8 4.417968 0 8-3.582031 8-8v-8h8c4.417968 0 8-3.582031 8-8 0-4.417968-3.582032-8-8-8zm0 0" fill="#f8e19f"/><path d="m76.339844 190.324219-1.917969-12.402344c-1.664063 1.792969-2.414063 4.25-2.042969 6.667969.375 2.414062 1.835938 4.527344 3.960938 5.734375zm0 0" fill="#d5ad56"/><path d="m160.179688 191.445312c0 4.417969-3.582032 8-8 8-4.417969 0-8-3.582031-8-8 0-4.417968 3.582031-8 8-8 4.417968 0 8 3.582032 8 8zm0 0" fill="#f8e19f"/><path d="m232.179688 311.445312c0 4.417969-3.582032 8-8 8-4.417969 0-8-3.582031-8-8 0-4.417968 3.582031-8 8-8 4.417968 0 8 3.582032 8 8zm0 0" fill="#f8e19f"/><path d="m104.179688 303.445312c0 4.417969-3.582032 8-8 8-4.417969 0-8-3.582031-8-8 0-4.417968 3.582031-8 8-8 4.417968 0 8 3.582032 8 8zm0 0" fill="#d5ad56"/><path d="m408.179688 263.445312c0 4.417969-3.582032 8-8 8-4.417969 0-8-3.582031-8-8 0-4.417968 3.582031-8 8-8 4.417968 0 8 3.582032 8 8zm0 0" fill="#f8e19f"/><path d="m392.179688 311.445312c0 4.417969-3.582032 8-8 8-4.417969 0-8-3.582031-8-8 0-4.417968 3.582031-8 8-8 4.417968 0 8 3.582032 8 8zm0 0" fill="#f8e19f"/><path d="m264.179688 143.285156h-40v17.117188c25.992187 26.003906 43.933593 58.945312 51.679687 94.882812h4.320313v-96c0-8.839844-7.160157-16-16-16zm0 0" fill="#d5ad56"/><path d="m264.179688 143.285156h-40l13.28125 5.277344c16.40625 6.578125 27.867187 21.636719 29.839843 39.203125 2.878907 25.4375 6.960938 59.839844 8.558594 67.519531h4.320313v-96c0-8.839844-7.160157-16-16-16zm0 0" fill="#f8e19f"/><path d="m284.980469 105.042969c-3.535157-2.648438-8.546875-1.933594-11.199219 1.601562l-10.640625 14.160157c-3.441406-11.316407-14.609375-18.441407-26.320313-16.785157-11.710937 1.65625-20.472656 11.597657-20.640624 23.425781v16c0 4.417969 3.582031 8 8 8h32c1.167968-.019531 2.3125-.292968 3.363281-.800781l.71875-.480469c.734375-.445312 1.40625-.980468 2-1.601562l24-32c1.410156-1.675781 2.070312-3.855469 1.828125-6.03125-.242188-2.179688-1.363282-4.160156-3.109375-5.488281zm-52.800781 30.242187v-8c0-4.417968 3.582031-8 8-8 4.417968 0 8 3.582032 8 8 0 4.417969-3.582032 8-8 8zm0 0" fill="#ff3314"/><path d="m224.179688 160.324219v-105.039063c0-8.839844-7.160157-16-16-16h-96c-8.835938 0-16 7.160156-16 16v48c48.355468 2.097656 94.109374 22.484375 128 57.039063zm0 0" fill="#018667"/><path d="m208.179688 39.285156h-96c-8.503907-.015625-15.53125 6.628906-16 15.117188h48c35.347656 0 64 28.65625 64 64v27.519531c5.613281 4.425781 10.957031 9.183594 16 14.242187v-104.878906c0-8.839844-7.160157-16-16-16zm0 0" fill="#39b99b"/><path d="m176.179688 125.042969v-85.757813h-32v72.480469c11.042968 3.457031 21.753906 7.902344 32 13.277344zm0 0" fill="#ff3314"/><path d="m176.179688 63.285156v-24h-32v15.277344c11.25.046875 22.285156 3.054688 32 8.722656zm0 0" fill="#ff7561"/><path d="m275.859375 255.285156h36.320313v-24c0-4.417968-3.582032-8-8-8h-38.160157c4.226563 10.351563 7.519531 21.058594 9.839844 32zm0 0" fill="#ff3314"/><path d="m304.179688 223.285156h-38.160157l11.761719 2.558594c15.359375 3.480469 28.035156 14.273438 33.921875 28.878906v.722656-24.160156c.003906-4.238281-3.292969-7.746094-7.523437-8zm0 0" fill="#ff7561"/><path d="m193.460938 40.082031c8.339843-9.382812 8.039062-23.605469-.691407-32.628906-8.726562-9.023437-22.933593-9.792969-32.589843-1.769531-9.671876-7.792969-23.695313-6.917969-32.324219 2.023437-8.628907 8.9375-9.007813 22.984375-.875 32.375l-13.917969 27.761719c-1.976562 3.933594-.402344 8.722656 3.519531 10.71875 1.121094.554688 2.347657.855469 3.597657.882812 3.042968.019532 5.832031-1.683593 7.203124-4.402343l13.917969-27.757813c.957031.078125 1.921875.078125 2.878907 0h32c.988281.078125 1.976562.078125 2.960937 0l13.921875 27.917969c1.355469 2.691406 4.105469 4.390625 7.117188 4.402344 1.253906-.007813 2.488281-.3125 3.601562-.882813 1.996094-.882812 3.542969-2.546875 4.285156-4.601562.738282-2.054688.609375-4.324219-.363281-6.277344zm-57.28125-16.796875c0-4.417968 3.582031-8 8-8 4.417968 0 8 3.582032 8 8v8h-8c-4.417969 0-8-3.582031-8-8zm32 8v-8c0-4.417968 3.582031-8 8-8 4.417968 0 8 3.582032 8 8 0 4.417969-3.582032 8-8 8zm0 0" fill="#ff3314"/></svg>